<mxfile host="app.diagrams.net" modified="2023-10-19T15:14:38.688Z" agent="Mozilla/5.0 (Windows NT 10.0; Win64; x64) AppleWebKit/537.36 (KHTML, like Gecko) Chrome/118.0.0.0 Safari/537.36" etag="TS7sBeb19iyzwGts5XXU" version="22.0.5" type="google">
  <diagram name="Page-1" id="infwnXLoT_mtUI6Q4LAC">
    <mxGraphModel grid="1" page="1" gridSize="10" guides="1" tooltips="1" connect="1" arrows="1" fold="1" pageScale="1" pageWidth="827" pageHeight="1169" math="0" shadow="0">
      <root>
        <mxCell id="0" />
        <mxCell id="1" parent="0" />
        <mxCell id="XdTp3A4cX-m7st5krIsS-9" style="edgeStyle=orthogonalEdgeStyle;rounded=0;orthogonalLoop=1;jettySize=auto;html=1;exitX=1;exitY=0.5;exitDx=0;exitDy=0;entryX=0;entryY=0.5;entryDx=0;entryDy=0;" edge="1" parent="1" source="XdTp3A4cX-m7st5krIsS-1" target="XdTp3A4cX-m7st5krIsS-22">
          <mxGeometry relative="1" as="geometry">
            <mxPoint x="710" y="310" as="targetPoint" />
          </mxGeometry>
        </mxCell>
        <mxCell id="XdTp3A4cX-m7st5krIsS-1" value="" style="rounded=1;whiteSpace=wrap;html=1;" vertex="1" parent="1">
          <mxGeometry x="160" y="120" width="350" height="380" as="geometry" />
        </mxCell>
        <mxCell id="XdTp3A4cX-m7st5krIsS-2" value="Input free text ex&amp;nbsp; : bangna" style="rounded=1;whiteSpace=wrap;html=1;" vertex="1" parent="1">
          <mxGeometry x="280" y="150" width="210" height="50" as="geometry" />
        </mxCell>
        <mxCell id="XdTp3A4cX-m7st5krIsS-7" value="" style="rounded=1;whiteSpace=wrap;html=1;" vertex="1" parent="1">
          <mxGeometry x="190" y="210" width="300" height="120" as="geometry" />
        </mxCell>
        <mxCell id="XdTp3A4cX-m7st5krIsS-4" value="Localtion to search&lt;br&gt;" style="text;html=1;strokeColor=none;fillColor=none;align=center;verticalAlign=middle;whiteSpace=wrap;rounded=0;" vertex="1" parent="1">
          <mxGeometry x="160" y="160" width="120" height="30" as="geometry" />
        </mxCell>
        <mxCell id="XdTp3A4cX-m7st5krIsS-20" value="" style="rounded=1;whiteSpace=wrap;html=1;" vertex="1" parent="1">
          <mxGeometry x="190" y="330" width="300" height="120" as="geometry" />
        </mxCell>
        <mxCell id="XdTp3A4cX-m7st5krIsS-5" value="&lt;h1&gt;localtion 1&lt;/h1&gt;&lt;p&gt;Lorem ipsum dolor sit amet, consectetur adipisicing elit, sed do eiusmod tempor incididunt ut labore et dolore magna aliqua.&lt;/p&gt;" style="text;html=1;strokeColor=none;fillColor=none;spacing=5;spacingTop=-20;whiteSpace=wrap;overflow=hidden;rounded=0;" vertex="1" parent="1">
          <mxGeometry x="190" y="210" width="300" height="100" as="geometry" />
        </mxCell>
        <mxCell id="XdTp3A4cX-m7st5krIsS-6" value="&lt;h1&gt;localtion 2&lt;/h1&gt;&lt;p&gt;Lorem ipsum dolor sit amet, consectetur adipisicing elit, sed do eiusmod tempor incididunt ut labore et dolore magna aliqua2&lt;/p&gt;" style="text;html=1;strokeColor=none;fillColor=none;spacing=5;spacingTop=-20;whiteSpace=wrap;overflow=hidden;rounded=0;" vertex="1" parent="1">
          <mxGeometry x="190" y="330" width="300" height="100" as="geometry" />
        </mxCell>
        <mxCell id="XdTp3A4cX-m7st5krIsS-12" style="edgeStyle=orthogonalEdgeStyle;rounded=0;orthogonalLoop=1;jettySize=auto;html=1;exitX=0.5;exitY=1;exitDx=0;exitDy=0;" edge="1" parent="1" source="XdTp3A4cX-m7st5krIsS-22" target="XdTp3A4cX-m7st5krIsS-11">
          <mxGeometry relative="1" as="geometry">
            <mxPoint x="780" y="370" as="sourcePoint" />
          </mxGeometry>
        </mxCell>
        <mxCell id="XdTp3A4cX-m7st5krIsS-10" value="location search api&lt;br&gt;google map&lt;br&gt;" style="text;html=1;align=center;verticalAlign=middle;resizable=0;points=[];autosize=1;strokeColor=none;fillColor=none;" vertex="1" parent="1">
          <mxGeometry x="570" y="270" width="120" height="40" as="geometry" />
        </mxCell>
        <mxCell id="XdTp3A4cX-m7st5krIsS-14" style="edgeStyle=orthogonalEdgeStyle;rounded=0;orthogonalLoop=1;jettySize=auto;html=1;exitX=0.5;exitY=1;exitDx=0;exitDy=0;entryX=0.5;entryY=0;entryDx=0;entryDy=0;" edge="1" parent="1" source="XdTp3A4cX-m7st5krIsS-11" target="XdTp3A4cX-m7st5krIsS-13">
          <mxGeometry relative="1" as="geometry" />
        </mxCell>
        <mxCell id="XdTp3A4cX-m7st5krIsS-11" value="Find location by text" style="rounded=1;whiteSpace=wrap;html=1;" vertex="1" parent="1">
          <mxGeometry x="720" y="440" width="120" height="60" as="geometry" />
        </mxCell>
        <mxCell id="XdTp3A4cX-m7st5krIsS-31" style="edgeStyle=orthogonalEdgeStyle;rounded=0;orthogonalLoop=1;jettySize=auto;html=1;exitX=1;exitY=0.5;exitDx=0;exitDy=0;" edge="1" parent="1" source="XdTp3A4cX-m7st5krIsS-13" target="XdTp3A4cX-m7st5krIsS-30">
          <mxGeometry relative="1" as="geometry" />
        </mxCell>
        <mxCell id="XdTp3A4cX-m7st5krIsS-43" style="edgeStyle=orthogonalEdgeStyle;rounded=0;orthogonalLoop=1;jettySize=auto;html=1;exitX=0.5;exitY=1;exitDx=0;exitDy=0;entryX=0.5;entryY=0;entryDx=0;entryDy=0;" edge="1" parent="1" source="XdTp3A4cX-m7st5krIsS-13" target="XdTp3A4cX-m7st5krIsS-29">
          <mxGeometry relative="1" as="geometry" />
        </mxCell>
        <mxCell id="XdTp3A4cX-m7st5krIsS-13" value="call rest api google" style="rounded=1;whiteSpace=wrap;html=1;" vertex="1" parent="1">
          <mxGeometry x="720" y="545" width="120" height="60" as="geometry" />
        </mxCell>
        <mxCell id="XdTp3A4cX-m7st5krIsS-18" style="edgeStyle=orthogonalEdgeStyle;rounded=0;orthogonalLoop=1;jettySize=auto;html=1;exitX=0;exitY=0.5;exitDx=0;exitDy=0;entryX=0.998;entryY=0.68;entryDx=0;entryDy=0;entryPerimeter=0;" edge="1" parent="1" source="XdTp3A4cX-m7st5krIsS-29" target="XdTp3A4cX-m7st5krIsS-1">
          <mxGeometry relative="1" as="geometry">
            <mxPoint x="720" y="790" as="sourcePoint" />
          </mxGeometry>
        </mxCell>
        <mxCell id="XdTp3A4cX-m7st5krIsS-19" value="list location to vuejs with list text" style="text;html=1;align=center;verticalAlign=middle;resizable=0;points=[];autosize=1;strokeColor=none;fillColor=none;" vertex="1" parent="1">
          <mxGeometry x="430" y="560" width="190" height="30" as="geometry" />
        </mxCell>
        <mxCell id="XdTp3A4cX-m7st5krIsS-22" value="find cache&amp;nbsp;" style="rhombus;whiteSpace=wrap;html=1;" vertex="1" parent="1">
          <mxGeometry x="650" y="270" width="260" height="80" as="geometry" />
        </mxCell>
        <mxCell id="XdTp3A4cX-m7st5krIsS-34" style="edgeStyle=orthogonalEdgeStyle;rounded=0;orthogonalLoop=1;jettySize=auto;html=1;exitX=1;exitY=0.5;exitDx=0;exitDy=0;" edge="1" parent="1" source="XdTp3A4cX-m7st5krIsS-23" target="XdTp3A4cX-m7st5krIsS-33">
          <mxGeometry relative="1" as="geometry" />
        </mxCell>
        <mxCell id="XdTp3A4cX-m7st5krIsS-35" style="edgeStyle=orthogonalEdgeStyle;rounded=0;orthogonalLoop=1;jettySize=auto;html=1;exitX=0.5;exitY=1;exitDx=0;exitDy=0;entryX=1;entryY=0.5;entryDx=0;entryDy=0;" edge="1" parent="1" source="XdTp3A4cX-m7st5krIsS-23" target="XdTp3A4cX-m7st5krIsS-29">
          <mxGeometry relative="1" as="geometry" />
        </mxCell>
        <mxCell id="XdTp3A4cX-m7st5krIsS-23" value="get from redis by keyword&amp;nbsp;" style="rounded=1;whiteSpace=wrap;html=1;" vertex="1" parent="1">
          <mxGeometry x="1000" y="280" width="120" height="60" as="geometry" />
        </mxCell>
        <mxCell id="XdTp3A4cX-m7st5krIsS-24" value="No" style="text;html=1;align=center;verticalAlign=middle;resizable=0;points=[];autosize=1;strokeColor=none;fillColor=none;" vertex="1" parent="1">
          <mxGeometry x="770" y="378" width="40" height="30" as="geometry" />
        </mxCell>
        <mxCell id="XdTp3A4cX-m7st5krIsS-25" style="edgeStyle=orthogonalEdgeStyle;rounded=0;orthogonalLoop=1;jettySize=auto;html=1;exitX=1;exitY=0.5;exitDx=0;exitDy=0;entryX=-0.027;entryY=0.498;entryDx=0;entryDy=0;entryPerimeter=0;" edge="1" parent="1" source="XdTp3A4cX-m7st5krIsS-22" target="XdTp3A4cX-m7st5krIsS-23">
          <mxGeometry relative="1" as="geometry" />
        </mxCell>
        <mxCell id="XdTp3A4cX-m7st5krIsS-26" value="Yes" style="text;html=1;align=center;verticalAlign=middle;resizable=0;points=[];autosize=1;strokeColor=none;fillColor=none;" vertex="1" parent="1">
          <mxGeometry x="920" y="278" width="40" height="30" as="geometry" />
        </mxCell>
        <mxCell id="XdTp3A4cX-m7st5krIsS-28" value="Json&lt;br&gt;[&lt;br&gt;&lt;br&gt;{}&lt;br&gt;{}&lt;br&gt;;&lt;br&gt;]" style="text;html=1;align=center;verticalAlign=middle;resizable=0;points=[];autosize=1;strokeColor=#6c8ebf;fillColor=#dae8fc;" vertex="1" parent="1">
          <mxGeometry x="550" y="745" width="50" height="110" as="geometry" />
        </mxCell>
        <mxCell id="XdTp3A4cX-m7st5krIsS-29" value="respoonse" style="rhombus;whiteSpace=wrap;html=1;" vertex="1" parent="1">
          <mxGeometry x="705" y="760" width="150" height="80" as="geometry" />
        </mxCell>
        <mxCell id="XdTp3A4cX-m7st5krIsS-30" value="store response from google to redis" style="rounded=1;whiteSpace=wrap;html=1;" vertex="1" parent="1">
          <mxGeometry x="890" y="545" width="120" height="60" as="geometry" />
        </mxCell>
        <mxCell id="XdTp3A4cX-m7st5krIsS-33" value="Redis" style="shape=cylinder3;whiteSpace=wrap;html=1;boundedLbl=1;backgroundOutline=1;size=15;" vertex="1" parent="1">
          <mxGeometry x="1190" y="270" width="60" height="80" as="geometry" />
        </mxCell>
        <mxCell id="XdTp3A4cX-m7st5krIsS-36" value="T1" style="text;html=1;align=center;verticalAlign=middle;resizable=0;points=[];autosize=1;strokeColor=none;fillColor=none;" vertex="1" parent="1">
          <mxGeometry x="1130" y="278" width="40" height="30" as="geometry" />
        </mxCell>
        <mxCell id="XdTp3A4cX-m7st5krIsS-37" value="T2" style="text;html=1;align=center;verticalAlign=middle;resizable=0;points=[];autosize=1;strokeColor=none;fillColor=none;" vertex="1" parent="1">
          <mxGeometry x="1050" y="358" width="40" height="30" as="geometry" />
        </mxCell>
        <mxCell id="XdTp3A4cX-m7st5krIsS-38" value="Redis" style="shape=cylinder3;whiteSpace=wrap;html=1;boundedLbl=1;backgroundOutline=1;size=15;" vertex="1" parent="1">
          <mxGeometry x="1190" y="535" width="60" height="80" as="geometry" />
        </mxCell>
        <mxCell id="XdTp3A4cX-m7st5krIsS-39" style="edgeStyle=orthogonalEdgeStyle;rounded=0;orthogonalLoop=1;jettySize=auto;html=1;exitX=1;exitY=0.5;exitDx=0;exitDy=0;entryX=0;entryY=0.5;entryDx=0;entryDy=0;entryPerimeter=0;jumpStyle=arc;" edge="1" parent="1" source="XdTp3A4cX-m7st5krIsS-30" target="XdTp3A4cX-m7st5krIsS-38">
          <mxGeometry relative="1" as="geometry" />
        </mxCell>
        <mxCell id="XdTp3A4cX-m7st5krIsS-40" value="U1" style="text;html=1;align=center;verticalAlign=middle;resizable=0;points=[];autosize=1;strokeColor=none;fillColor=none;" vertex="1" parent="1">
          <mxGeometry x="850" y="548" width="40" height="30" as="geometry" />
        </mxCell>
        <mxCell id="XdTp3A4cX-m7st5krIsS-41" value="key : keyward&lt;br&gt;value : json" style="text;html=1;align=center;verticalAlign=middle;resizable=0;points=[];autosize=1;strokeColor=none;fillColor=none;" vertex="1" parent="1">
          <mxGeometry x="1070" y="578" width="100" height="40" as="geometry" />
        </mxCell>
        <mxCell id="XdTp3A4cX-m7st5krIsS-42" value="return json strin" style="text;html=1;align=center;verticalAlign=middle;resizable=0;points=[];autosize=1;strokeColor=none;fillColor=none;" vertex="1" parent="1">
          <mxGeometry x="1090" y="348" width="110" height="30" as="geometry" />
        </mxCell>
        <mxCell id="XdTp3A4cX-m7st5krIsS-44" value="U2" style="text;html=1;align=center;verticalAlign=middle;resizable=0;points=[];autosize=1;strokeColor=none;fillColor=none;" vertex="1" parent="1">
          <mxGeometry x="780" y="605" width="40" height="30" as="geometry" />
        </mxCell>
        <mxCell id="1J7DXDZ6myHlzCE4QgSV-1" value="google map" style="rounded=1;whiteSpace=wrap;html=1;" vertex="1" parent="1">
          <mxGeometry x="310" y="585" width="120" height="60" as="geometry" />
        </mxCell>
        <mxCell id="1J7DXDZ6myHlzCE4QgSV-2" value="button" style="rounded=1;whiteSpace=wrap;html=1;" vertex="1" parent="1">
          <mxGeometry x="380" y="297.5" width="110" height="25" as="geometry" />
        </mxCell>
        <mxCell id="1J7DXDZ6myHlzCE4QgSV-3" value="button" style="rounded=1;whiteSpace=wrap;html=1;" vertex="1" parent="1">
          <mxGeometry x="380" y="415" width="110" height="25" as="geometry" />
        </mxCell>
      </root>
    </mxGraphModel>
  </diagram>
</mxfile>
